<svg xmlns="http://www.w3.org/2000/svg" viewBox="-18.48 -132.92 701.43 173.44">

<g transform="translate(62.78 -114.44) scale(1.3648)"><g stroke="#0F1826" stroke-opacity="0.35" stroke-width="1.10" stroke-linejoin="round">
<polygon points="-46.00,23.00 0.00,46.00 0.00,59.50 -46.00,36.50" fill="#3A4038"/>
<polygon points="0.00,46.00 46.00,23.00 46.00,36.50 0.00,59.50" fill="#2E332C"/>
<polygon points="-46.00,36.50 0.00,59.50 0.00,73.00 -46.00,50.00" fill="#343930"/>
<polygon points="0.00,59.50 46.00,36.50 46.00,50.00 0.00,73.00" fill="#262B25"/>
<polygon points="-46.00,50.00 0.00,73.00 0.00,86.50 -46.00,63.50" fill="#2B302A"/>
<polygon points="0.00,73.00 46.00,50.00 46.00,63.50 0.00,86.50" fill="#20241F"/>
<polygon points="-46.00,63.50 0.00,86.50 0.00,100.00 -46.00,77.00" fill="#262B24"/>
<polygon points="0.00,86.50 46.00,63.50 46.00,77.00 0.00,100.00" fill="#1B1F1B"/>
<polygon points="0.00,0.00 46.00,23.00 0.00,46.00 -46.00,23.00" fill="#0F1826"/>
<polygon points="0.00,0.00 46.00,23.00 0.00,46.00 -46.00,23.00" fill="none" stroke="#EE3F8C" stroke-opacity="0.92" stroke-width="1.29"/>
</g></g>
<path transform="translate(166.96 0.00)" d="M36.30 1.86Q25.60 1.86 17.41 -1.98Q9.24 -5.82 4.62 -12.93Q0.00 -20.07 0.00 -30.09L0.00 -33.78L17.16 -33.78L17.16 -30.09Q17.16 -21.78 22.30 -17.61Q27.45 -13.47 36.30 -13.47Q45.27 -13.47 49.69 -17.02Q54.12 -20.58 54.12 -26.13Q54.12 -29.97 51.93 -32.34Q49.75 -34.71 45.58 -36.22Q41.44 -37.74 35.50 -39.06L32.46 -39.72Q22.96 -41.85 16.15 -45.07Q9.36 -48.30 5.73 -53.58Q2.10 -58.86 2.10 -67.32Q2.10 -75.78 6.13 -81.78Q10.15 -87.78 17.47 -91.02Q24.81 -94.26 34.71 -94.26Q44.61 -94.26 52.33 -90.87Q60.06 -87.51 64.47 -80.85Q68.89 -74.19 68.89 -64.14L68.89 -60.18L51.73 -60.18L51.73 -64.14Q51.73 -69.42 49.69 -72.66Q47.64 -75.90 43.81 -77.41Q39.99 -78.93 34.71 -78.93Q26.79 -78.93 23.02 -75.96Q19.26 -72.99 19.26 -67.86Q19.26 -64.41 21.04 -62.04Q22.83 -59.67 26.38 -58.08Q29.95 -56.49 35.50 -55.32L38.53 -54.66Q48.43 -52.53 55.75 -49.23Q63.09 -45.93 67.18 -40.51Q71.28 -35.10 71.28 -26.67Q71.28 -18.21 66.99 -11.80Q62.70 -5.40 54.84 -1.77Q46.98 1.86 36.30 1.86ZM109.69 1.05Q102.02 1.05 96.29 -2.43Q90.55 -5.94 87.38 -12.15Q84.20 -18.36 84.20 -26.40L84.20 -65.46L100.84 -65.46L100.84 -27.72Q100.84 -20.34 104.47 -16.62Q108.10 -12.93 114.83 -12.93Q122.48 -12.93 126.71 -18.01Q130.94 -23.10 130.94 -32.22L130.94 -65.46L147.56 -65.46L147.56 -0.00L131.20 -0.00L131.20 -8.58L128.83 -8.58Q127.24 -5.28 122.87 -2.10Q118.52 1.05 109.69 1.05ZM205.38 1.86Q196.53 1.86 191.79 -1.18Q187.04 -4.23 184.80 -7.92L182.42 -7.92L182.42 -0.00L166.05 -0.00L166.05 -92.40L182.67 -92.40L182.67 -57.96L185.06 -57.96Q186.51 -60.33 188.94 -62.43Q191.40 -64.56 195.42 -65.94Q199.44 -67.32 205.38 -67.32Q213.30 -67.32 220.02 -63.42Q226.77 -59.52 230.85 -52.00Q234.96 -44.49 234.96 -33.78L234.96 -31.68Q234.96 -21.00 230.85 -13.47Q226.77 -5.94 220.02 -2.04Q213.30 1.86 205.38 1.86ZM200.37 -12.66Q208.02 -12.66 213.16 -17.61Q218.31 -22.56 218.31 -32.07L218.31 -33.39Q218.31 -42.90 213.24 -47.85Q208.16 -52.80 200.37 -52.80Q192.72 -52.80 187.56 -47.85Q182.42 -42.90 182.42 -33.39L182.42 -32.07Q182.42 -22.56 187.56 -17.61Q192.72 -12.66 200.37 -12.66Z" fill="#0F1826"/>
<path transform="translate(402.71 0.00)" d="M30.90 -0.00Q24.42 -0.00 20.40 -4.02Q16.38 -8.04 16.38 -14.79L16.38 -51.75L0.00 -51.75L0.00 -65.46L16.38 -65.46L16.38 -85.80L33.00 -85.80L33.00 -65.46L50.96 -65.46L50.96 -51.75L33.00 -51.75L33.00 -17.70Q33.00 -13.74 36.71 -13.74L49.38 -13.74L49.38 -0.00L30.90 -0.00Z" fill="#EE3F8C"/>
<path transform="translate(454.47 0.00)" d="M0.00 -0.00L0.00 -92.40L16.62 -92.40L16.62 -57.42L19.02 -57.42Q20.07 -59.52 22.30 -61.63Q24.54 -63.75 28.30 -65.13Q32.07 -66.54 37.89 -66.54Q45.54 -66.54 51.27 -63.03Q57.03 -59.52 60.18 -53.38Q63.36 -47.25 63.36 -39.06L63.36 -0.00L46.74 -0.00L46.74 -37.74Q46.74 -45.15 43.11 -48.84Q39.48 -52.53 32.73 -52.53Q25.08 -52.53 20.85 -47.44Q16.62 -42.36 16.62 -33.27L16.62 -0.00L0.00 -0.00ZM81.31 -0.00L81.31 -65.46L97.94 -65.46L97.94 -0.00L81.31 -0.00ZM89.69 -73.14Q85.21 -73.14 82.10 -76.02Q79.00 -78.93 79.00 -83.70Q79.00 -88.44 82.10 -91.35Q85.21 -94.26 89.69 -94.26Q94.31 -94.26 97.34 -91.35Q100.39 -88.44 100.39 -83.70Q100.39 -78.93 97.34 -76.02Q94.31 -73.14 89.69 -73.14ZM146.25 1.86Q136.49 1.86 129.03 -2.31Q121.58 -6.48 117.41 -14.07Q113.25 -21.66 113.25 -31.95L113.25 -33.54Q113.25 -43.83 117.33 -51.42Q121.44 -59.01 128.82 -63.15Q136.22 -67.32 146.00 -67.32Q155.63 -67.32 162.75 -63.03Q169.88 -58.74 173.84 -51.15Q177.80 -43.56 177.80 -33.54L177.80 -27.84L130.16 -27.84Q130.41 -21.12 135.15 -16.89Q139.92 -12.66 146.78 -12.66Q153.78 -12.66 157.08 -15.70Q160.38 -18.75 162.09 -22.44L175.70 -15.30Q173.84 -11.88 170.34 -7.86Q166.85 -3.84 161.04 -0.99Q155.24 1.86 146.25 1.86ZM130.28 -40.26L160.91 -40.26Q160.38 -45.93 156.35 -49.36Q152.33 -52.80 145.86 -52.80Q139.13 -52.80 135.17 -49.36Q131.21 -45.93 130.28 -40.26ZM192.59 -0.00L192.59 -92.40L209.21 -92.40L209.21 -0.00L192.59 -0.00Z" fill="#0F1826"/>
</svg>
